<?xml version="1.0" encoding="UTF-8" standalone="no"?>
<svg width="48" height="48" version="1.1" viewBox="0 0 12.7 12.7"
  xmlns="http://www.w3.org/2000/svg">
  <title>Beteliney Launcher Logo</title>
  <defs>
    <linearGradient id="hexBg" x1="0" y1="0" x2="1" y2="1">
      <stop offset="0%" stop-color="#151B28"/>
      <stop offset="100%" stop-color="#080B12"/>
    </linearGradient>
    <linearGradient id="bFill" x1="0" y1="0" x2="0" y2="1">
      <stop offset="0%" stop-color="#5CFF22"/>
      <stop offset="100%" stop-color="#1EBB00"/>
    </linearGradient>
  </defs>
  <polygon points="6.35,0.94 11.01,3.67 11.01,9.03 6.35,11.76 1.69,9.03 1.69,3.67" fill="url(#hexBg)"/>
  <path fill-rule="evenodd" fill="url(#bFill)"
    d="M 3.47,2.41 L 3.47,10.37 L 6.70,10.37 C 9.87,10.37 9.87,6.40 6.70,6.40 C 9.72,6.40 9.72,2.41 6.65,2.41 Z
       M 5.06,3.57 L 6.45,3.57 C 8.08,3.57 8.08,6.10 6.45,6.10 L 5.06,6.10 Z
       M 5.06,6.70 L 6.60,6.70 C 8.38,6.70 8.38,9.28 6.60,9.28 L 5.06,9.28 Z"/>
</svg>
