<?xml version="1.0" encoding="UTF-8"?>
<svg version="1.1" viewBox="0 0 32 32" xmlns="http://www.w3.org/2000/svg">
  <path fill-rule="evenodd" clip-rule="evenodd" fill="#39FF14" d="M 26,32 H 6 C 2.7,32 0,29.3 0,26 V 6 C 0,2.7 2.7,0 6,0 h 20 c 3.3,0 6,2.7 6,6 v 20 c 0,3.3 -2.7,6 -6,6 z"/>
  <path fill-rule="evenodd" clip-rule="evenodd" fill="#0C0E16" d="M 28,6 C 28,4.9 27.1,4 26,4 H 6 C 4.9,4 4,4.9 4,6 v 20 c 0,1.1 0.9,2 2,2 h 20 c 1.1,0 2,-0.9 2,-2 z"/>
  <g transform="rotate(31.454004,7.3789216,28.015625)" fill="#39FF14">
    <path d="M 8.413071,2.4595861 A 2.5,8.0000002 0 0 0 6.3465633,10.337319 2.5,8.0000002 0 0 0 7.4458626,16.960111 C 7.7356137,16.430277 8.2119852,16.01524 8.9151067,15.96976 9.5063364,15.93152 9.9629895,16.336614 10.250228,16.958042 A 2.5,8.0000002 0 0 0 11.346521,10.337343 2.5,8.0000002 0 0 0 8.8459304,2.3382251 2.5,8.0000002 0 0 0 8.413071,2.4595861 Z"/>
    <path d="m 9.1439767,17.889764 c -1.3309058,0.08609 -1.8604029,1.491611 -1.8189608,2.506407 0.045613,1.116922 1.4392755,2.225341 0.1366377,3.772111 1.6687108,-0.08051 2.5726364,-1.0077 3.1912724,-2.25073 0.506557,-1.849334 -0.145661,-4.115969 -1.5089493,-4.027788 z"/>
  </g>
</svg>
